<?xml version="1.0" encoding="UTF-8" standalone="no"?>
<!-- Created with Inkscape (http://www.inkscape.org/) -->

<svg
   xmlns:dc="http://purl.org/dc/elements/1.1/"
   xmlns:cc="http://creativecommons.org/ns#"
   xmlns:rdf="http://www.w3.org/1999/02/22-rdf-syntax-ns#"
   xmlns:svg="http://www.w3.org/2000/svg"
   xmlns="http://www.w3.org/2000/svg"
   xmlns:xlink="http://www.w3.org/1999/xlink"
   xmlns:sodipodi="http://sodipodi.sourceforge.net/DTD/sodipodi-0.dtd"
   xmlns:inkscape="http://www.inkscape.org/namespaces/inkscape"
   width="21cm"
   height="29.700001cm"
   viewBox="0 0 210 297"
   version="1.1"
   id="svg8"
   inkscape:version="0.92.3 (2405546, 2018-03-11)"
   sodipodi:docname="dragon-planform.svg"
   inkscape:export-filename="/home/gert/devel/dragonworld/images/size-comparizon.png"
   inkscape:export-xdpi="180.00999"
   inkscape:export-ydpi="180.00999">
  <defs
     id="defs2">
    <inkscape:tag
       id="Set 2"
       inkscape:label="Planforms"
       inkscape:expanded="true">
      <inkscape:tagref
         xlink:href="#path4534-3-35"
         id="tagref4721" />
      <inkscape:tagref
         xlink:href="#path4534-3-3"
         id="tagref4723" />
      <inkscape:tagref
         xlink:href="#path4534-3-5"
         id="tagref4725" />
      <inkscape:tagref
         xlink:href="#path4534-3"
         id="tagref4727" />
      <inkscape:tagref
         xlink:href="#path4534-3-7"
         id="tagref4729" />
      <inkscape:tagref
         xlink:href="#path4534-3-6"
         id="tagref4731" />
    </inkscape:tag>
    <inkscape:tag
       id="Set 1"
       inkscape:label="Captions"
       inkscape:expanded="true">
      <inkscape:tagref
         xlink:href="#text4528"
         id="tagref1005" />
      <inkscape:tagref
         xlink:href="#text4532"
         id="tagref1007" />
      <inkscape:tagref
         xlink:href="#text4536"
         id="tagref1009" />
      <inkscape:tagref
         xlink:href="#text4540"
         id="tagref1011" />
      <inkscape:tagref
         xlink:href="#text820"
         id="tagref1013" />
      <inkscape:tagref
         xlink:href="#text4544"
         id="tagref1015" />
    </inkscape:tag>
  </defs>
  <sodipodi:namedview
     id="base"
     pagecolor="#ffffff"
     bordercolor="#666666"
     borderopacity="1.0"
     inkscape:pageopacity="0.0"
     inkscape:pageshadow="2"
     inkscape:zoom="0.01"
     inkscape:cx="422.83236"
     inkscape:cy="4524.1294"
     inkscape:document-units="mm"
     inkscape:current-layer="layer1"
     showgrid="false"
     inkscape:window-width="1869"
     inkscape:window-height="1025"
     inkscape:window-x="51"
     inkscape:window-y="27"
     inkscape:window-maximized="1"
     inkscape:measure-start="192,651.5"
     inkscape:measure-end="567.823,642.887"
     units="cm"
     inkscape:snap-page="false"
     showguides="false"
     inkscape:snap-grids="false"
     inkscape:snap-to-guides="false"
     inkscape:snap-others="false"
     inkscape:object-nodes="false"
     inkscape:snap-nodes="false"
     inkscape:snap-global="false" />
  <metadata
     id="metadata5">
    <rdf:RDF>
      <cc:Work
         rdf:about="">
        <dc:format>image/svg+xml</dc:format>
        <dc:type
           rdf:resource="http://purl.org/dc/dcmitype/StillImage" />
        <dc:title />
      </cc:Work>
    </rdf:RDF>
  </metadata>
  <g
     inkscape:label="Great dragon"
     inkscape:groupmode="layer"
     id="layer1"
     style="display:inline">
    <path
       id="path4534-3-6"
       style="fill:#521818;fill-opacity:1;fill-rule:nonzero;stroke:#000000;stroke-width:54.47286224;stroke-linecap:butt;stroke-linejoin:miter;stroke-miterlimit:4;stroke-dasharray:none;stroke-opacity:1"
       d="M 345.10149,963.14822 C 2163.4438,-142.67268 7060.9054,-2338.294 8609.4464,-200.31314 9588.8902,-1198.9995 12477.695,-2192.1951 15082.585,-3378.6875 c -1178.096,-2224.718 -4562.803,-4056.8774 -6777.1435,-4526.1366 -3475.8698,1388.9164 -5265.6792,2070.7205 -7197.6055,1449.049 0,0 36.78,-165.0037 -391.48833,-747.7653 -193.62652,-1255.9209 -394.76211,-1464.1352 -212.9208,-2519.3209 131.94144,-2.7236 194.57434,-391.6567 190.22468,-819.9557 -6.50951,-642.033 -25.11199,-1289.364 -244.73023,-1802.352 -92.09182,-215.094 -205.31639,-428.222 -328.73555,-428.222 -123.424615,0 -236.64918,213.128 -328.741,428.222 -219.62369,512.988 -238.21255,1160.319 -244.73023,1802.358 -4.35783,428.293 58.28324,817.2152 190.22468,819.9497 181.841309,1055.1857 -19.28339,1263.4 -212.9208,2519.3209 -428.26564,582.7616 -391.48829,747.7653 -391.48829,747.7653 -1931.92363,621.6715 -3721.73573,-60.1271 -7197.60223,-1449.049 -2214.3399,469.2592 -5599.0479,2301.4186 -6777.1449,4526.1366 2604.889,1186.4924 5493.694,2179.688 6473.1367,3178.37436 1548.5437,-2137.98086 6446.0053,57.64046 8264.34489,1163.46136 M -867.4726,-6455.7751 c -273.5164,2901.3935 -61.76133,3445.8743 418.82278,5475.66115 C -311.2039,-528.139 -135.25927,98.369736 -104.74085,963.14822 -25.725243,3202.0918 89.806251,7318.4263 -95.643885,9565.0314 -133.48346,10010.614 -1193.1359,10697.822 -1354.3374,11205.838 c -83.0112,261.598 -124.6584,1337.124 -122.3679,1874.183 1391.724478,-295.897 1280.09052,-259.501 1596.88834,-259.503 316.79783,0 205.15842,-36.394 1596.88826,259.503 2.179,-537.059 -39.3566,-1612.585 -122.3678,-1874.183 C 1433.502,10697.822 373.84682,10010.614 336.00725,9565.0314 150.55983,7318.4263 266.0886,3202.0918 345.10422,963.14822 375.62264,98.369736 551.56726,-528.139 689.01318,-980.11395 1169.5973,-3009.9008 1381.3524,-3554.3816 1107.8387,-6455.7751"
       inkscape:connector-curvature="0"
       sodipodi:nodetypes="cccccccccscccccccccccscccscccscc"
       inkscape:export-filename="/home/gert/devel/dragonworld/images/great-dragon.png"
       inkscape:export-xdpi="180"
       inkscape:export-ydpi="180"
       inkscape:label="Great dragon planform" />
    <text
       xml:space="preserve"
       style="font-style:normal;font-weight:normal;font-size:2522.20703125px;line-height:125%;font-family:Sans;letter-spacing:0px;word-spacing:0px;fill:#000000;fill-opacity:1;stroke:none;stroke-width:72.06305695px;stroke-linecap:butt;stroke-linejoin:miter;stroke-opacity:1"
       x="1816.281"
       y="9742.4658"
       id="text820"
       inkscape:export-filename="/home/gert/devel/dragonworld/images/great-dragon.png"
       inkscape:export-xdpi="180"
       inkscape:export-ydpi="180"
       inkscape:label="Great dragon caption"><tspan
         sodipodi:role="line"
         id="tspan818"
         x="1816.281"
         y="9742.4658"
         style="font-size:384.33630371px;stroke-width:72.06305695px">Great dragon</tspan></text>
  </g>
  <g
     inkscape:groupmode="layer"
     id="layer2"
     inkscape:label="Snow dragon"
     style="display:inline">
    <path
       id="path4534-3-7"
       style="opacity:0.97000002;fill:#c2c2c2;fill-opacity:1;fill-rule:nonzero;stroke:#000000;stroke-width:54.47286224;stroke-linecap:butt;stroke-linejoin:miter;stroke-miterlimit:4;stroke-dasharray:none;stroke-opacity:1"
       d="M 263.34862,806.08661 C 1420.758,364.74748 4538.0874,-848.82618 5523.7657,4.4557981 6147.2022,-394.12758 7985.9827,-2429.675 9644.0467,-2903.213 c -749.8816,-887.9022 -4776.472,-1619.1296 -6185.941,-1806.4127 -1250.6696,405.5178 -1944.5259,443.0686 -2709.26225,285.5331 0,0 23.3961,-65.855 -249.19155,-298.4405 -123.24758,-501.2483 -251.2697,-1985.6338 -135.52576,-2406.7663 83.98353,-1.0894 123.8495,-156.3126 121.07955,-327.2511 -4.13993,-256.2404 -15.98778,-859.7262 -155.77604,-1064.4597 -58.61552,-85.8465 -130.68585,-170.9086 -209.24661,-170.9086 -78.560759,0 -150.63108,85.0621 -209.246603,170.9086 -139.796427,204.7363 -151.627937,808.2193 -155.776047,1064.4624 -2.77811,170.9358 37.09602,326.1563 121.08228,327.2484 115.741215,421.1325 -12.28363,1905.5207 -135.52848,2406.7663 -272.60127,232.5855 -249.19156,298.4405 -249.19156,298.4405 -764.73633,157.5355 -1468.17433,119.9874 -2712.47343,-285.5331 -1409.469,187.2831 -5432.8447,918.5105 -6182.729,1806.4127 1658.064,473.538 3496.8473,2509.08542 4120.2775,2907.6687981 C -4297.7213,-848.82618 -1180.392,364.74748 -22.982534,806.08661 M -508.48009,-4424.0926 C -682.57808,-3266.1248 -547.79043,-779.58573 -241.8899,30.518339 -154.40376,210.90522 -42.413004,460.94928 -22.985258,806.08661 27.309536,1699.6676 100.8479,5438.9137 -17.183898,6335.5506 -41.260903,6513.3854 -715.76023,7720.929 -818.36531,7923.6851 c -52.83868,104.4054 -79.34789,863.0463 -77.89075,1077.3915 885.859481,-118.0944 814.805079,-103.5692 1016.45,-103.5692 201.64492,0 130.59051,-14.517 1016.44996,103.5692 1.3619,-214.3452 -25.0575,-972.9861 -77.8907,-1077.3915 C 956.1481,7720.929 281.65967,6513.3854 257.57177,6335.5506 139.52908,5438.9137 213.06744,1699.6676 263.37313,806.08934 282.79271,460.94928 394.78891,210.90522 482.27505,30.518339 788.17558,-779.58573 922.96323,-3266.1248 748.86524,-4424.0926"
       inkscape:connector-curvature="0"
       sodipodi:nodetypes="cccccccccscccccccccccscccscccscc"
       inkscape:export-filename="/home/gert/devel/dragonworld/images/snow-dragon.png"
       inkscape:export-xdpi="180"
       inkscape:export-ydpi="180"
       inkscape:label="Snow dragon planform" />
    <text
       xml:space="preserve"
       style="font-style:normal;font-weight:normal;font-size:384.33630371px;line-height:125%;font-family:Sans;letter-spacing:0px;word-spacing:0px;fill:#000000;fill-opacity:1;stroke:none;stroke-width:72.06305695px;stroke-linecap:butt;stroke-linejoin:miter;stroke-opacity:1"
       x="1831.2964"
       y="8005.7446"
       id="text4528"
       inkscape:export-filename="/home/gert/devel/dragonworld/images/snow-dragon.png"
       inkscape:export-xdpi="180"
       inkscape:export-ydpi="180"
       inkscape:label="Snow dragon caption"><tspan
         sodipodi:role="line"
         id="tspan4526"
         x="1831.2964"
         y="8005.7446"
         style="stroke-width:72.06305695px">Snow dragon</tspan></text>
  </g>
  <g
     inkscape:groupmode="layer"
     id="layer3"
     inkscape:label="Sand dragon"
     style="display:inline">
    <path
       id="path4534-3"
       style="fill:#b1804b;fill-opacity:1;fill-rule:nonzero;stroke:#000000;stroke-width:54.47286224;stroke-linecap:butt;stroke-linejoin:miter;stroke-miterlimit:4;stroke-dasharray:none;stroke-opacity:1"
       d="M 222.39047,-681.71434 C 1048.7928,-1310.3421 2581.3024,-2135.2573 3978.3869,-1991.6723 c 445.1414,-567.7243 1758.049,-1127.8497 2941.9268,-1802.3354 -1134.5008,-773.9668 -1701.8711,-774.8792 -2708.2464,-1041.6355 -1579.7211,789.5596 -2765.0016,1177.1422 -3643.02787,823.7413 0,0 16.72317,-93.8023 -177.92471,-425.0844 -87.99819,-713.9568 -179.4091,-762.2034 -96.76832,-1362.0449 59.96645,-1.6342 88.43125,-222.6442 86.45388,-466.1216 -2.96877,-364.9763 -11.41206,-395.827 -111.22541,-687.4448 -41.8515,-122.2725 -93.31202,-243.431 -149.40545,-243.431 -56.093425,0 -107.553938,121.1585 -149.405439,243.431 -99.816071,291.6178 -108.264811,322.4685 -111.225411,687.4503 -1.90655,243.4719 26.50105,464.5609 86.453877,466.1161 82.64078,599.8415 -8.770131,648.0936 -96.768317,1362.0449 -194.63971,331.2821 -177.92471,425.0844 -177.92471,425.0844 -878.02632,353.4009 -2063.30672,-34.2062 -3643.02792,-823.7413 -1006.378,266.7563 -1574.2793,266.887 -2708.2464,1041.6355 1183.8751,674.4857 2496.7855,1234.6111 2941.9241,1802.3354 1397.1772,-142.6916 2929.59683,681.3357 3755.999175,1309.95796 M -328.7033,-4011.9019 c -124.30707,1649.3593 -28.06715,1071.6256 190.34724,2225.497 62.466759,256.9376 142.4329204,613.0948 156.301711,1104.69056 35.911235,1272.77205 88.417629,4907.28584 4.139938,6184.41574 -17.2134248,253.3015 -498.788939,643.9591 -572.054939,932.7497 -37.72518,148.7082 -56.65177,760.1143 -55.61407,1065.4184 632.51437,-168.2122 581.781069,-147.518 725.75829,-147.518 143.97722,0 93.24392,-20.6997 725.75829,147.518 1.08946,-305.3041 -17.89434,-916.7102 -55.61407,-1065.4184 -73.26328,-288.7906 -554.85785,-679.4482 -572.05493,-932.7497 -84.28314,-1277.1299 -31.77675,-4911.64369 4.13993,-6184.41574 13.86335,-491.59576 93.83496,-847.75296 156.30171,-1104.69056 218.41439,-1153.8714 314.65432,-576.1377 190.34725,-2225.497"
       inkscape:connector-curvature="0"
       sodipodi:nodetypes="cccccccccscccccccccccscccscccscc"
       inkscape:label="Sand dragon planform"
       inkscape:export-filename="/home/gert/devel/dragonworld/images/sand-dragon.png"
       inkscape:export-xdpi="0.55929971"
       inkscape:export-ydpi="0.55929971" />
    <text
       xml:space="preserve"
       style="font-style:normal;font-weight:normal;font-size:384.33630371px;line-height:125%;font-family:Sans;letter-spacing:0px;word-spacing:0px;fill:#000000;fill-opacity:1;stroke:none;stroke-width:72.06305695px;stroke-linecap:butt;stroke-linejoin:miter;stroke-opacity:1"
       x="1866.2002"
       y="6269.0317"
       id="text4532"
       inkscape:label="Sand dragon caption"><tspan
         sodipodi:role="line"
         id="tspan4530"
         x="1866.2002"
         y="6269.0317"
         style="stroke-width:72.06305695px">Sand dragon</tspan></text>
  </g>
  <g
     inkscape:groupmode="layer"
     id="layer4"
     inkscape:label="Sea dragon"
     style="display:inline">
    <path
       id="path4534-3-5"
       style="fill:#69d4ff;fill-opacity:1;fill-rule:nonzero;stroke:#000000;stroke-width:54.47286224;stroke-linecap:butt;stroke-linejoin:miter;stroke-miterlimit:4;stroke-dasharray:none;stroke-opacity:1"
       d="M 458.04552,474.52664 C 1284.3253,8.9443619 2914.1506,-570.2329 3984.093,-169.90366 4429.1689,-590.37696 7041.2707,-38.811997 8224.9687,-538.35538 7277.337,-1053.6877 3837.0598,-1407.922 2830.8289,-1605.4924 c -1579.4869,584.7717 -1377.684,715.50107 -2255.58229,453.7617 0,0 16.72317,-69.4692 -177.89747,-314.8286 -87.98729,-528.7736 -179.38459,-765.2866 -96.7547,-1209.5454 59.95556,-1.3619 88.41763,-164.9003 86.44026,-345.2245 -2.96877,-270.3162 -11.41206,-654.7311 -111.20907,-870.7106 -41.84605,-90.5611 -99.67172,-180.2943 -155.75426,-180.2943 -56.085256,0 -101.164273,89.7332 -143.010326,180.2943 -99.802454,215.9822 -108.248474,600.3944 -111.209074,870.7106 -1.90655,180.3242 26.47381,344.0696 86.43754,345.2245 82.632609,444.2588 -8.770131,680.7718 -96.75197,1209.5454 -194.61248,245.3594 -177.9002,314.8286 -177.9002,314.8286 -877.89554,261.7421 -676.09266,130.9936 -2255.57964,-453.7617 -1006.2308,197.5704 -4461.0093,548.5799 -5406.8842,1067.13702 1183.7062,499.543383 3808.5442,-52.02158 4253.6175,368.45172 1072.2792,-394.02945 2695.2627,178.8534692 3521.54524,644.4303 M -322.37083,-1151.7307 C -446.66156,69.836851 -350.43525,-96.299932 -132.05082,758.29485 -69.594962,948.58762 10.357581,1008.5405 24.226372,1372.6316 c 35.905787,942.6529 88.404008,581.0593 4.139938,1526.9397 -17.186188,187.6018 -498.71812,476.9344 -571.9705,690.8221 -37.71974,110.1414 -56.64633,562.9662 -55.6059,789.083 632.421761,-124.5794 581.693908,-109.2562 725.65206,-109.2562 143.95544,0 93.22759,-15.3341 725.64935,109.2562 1.08945,-226.1168 -17.89434,-678.9416 -55.6059,-789.083 C 723.23304,3376.5057 241.70928,3087.1731 224.51492,2899.5713 140.2454,1953.6909 192.74362,2315.2845 228.65485,1372.6316 242.5182,1008.5405 322.47346,948.58762 384.93205,758.29485 603.31648,-96.299932 699.54007,69.836851 575.25206,-1151.7307"
       inkscape:connector-curvature="0"
       sodipodi:nodetypes="cccccccccscccccccccccscccscccscc"
       inkscape:label="Sea dragon planform" />
    <text
       xml:space="preserve"
       style="font-style:normal;font-weight:normal;font-size:384.33630371px;line-height:125%;font-family:Sans;letter-spacing:0px;word-spacing:0px;fill:#000000;fill-opacity:1;stroke:none;stroke-width:72.06305695px;stroke-linecap:butt;stroke-linejoin:miter;stroke-opacity:1"
       x="1991.9342"
       y="4532.3101"
       id="text4536"
       inkscape:label="Sea dragon caption"><tspan
         sodipodi:role="line"
         id="tspan4534"
         x="1991.9342"
         y="4532.3101"
         style="stroke-width:72.06305695px">Sea dragon</tspan></text>
  </g>
  <g
     inkscape:groupmode="layer"
     id="layer5"
     inkscape:label="Mountain dragon"
     style="display:inline">
    <path
       id="path4534-3-3"
       style="fill:#658760;fill-opacity:1;fill-rule:nonzero;stroke:#000000;stroke-width:54.47286224;stroke-linecap:butt;stroke-linejoin:miter;stroke-miterlimit:4;stroke-dasharray:none;stroke-opacity:1"
       d="M 181.52221,271.34286 C 677.39957,-66.239083 1579.8515,-507.2078 2435.2797,-83.836541 2702.3819,-388.71026 3311.8379,-695.28897 4200.56,-662.58619 3879.2845,-1341.7429 3308.24,-2092.142 2704.3702,-2235.392 c -947.8986,424.0031 -1787.99274,632.1385 -2314.84337,442.355 0,0 10.02301,-50.3683 -106.76408,-228.2712 -52.80327,-383.4046 -107.65472,-394.7812 -58.06535,-716.9038 35.98205,-1.0894 53.06202,-119.5625 51.87723,-250.3164 -1.90655,-195.9988 -6.83634,-517.4731 -66.74015,-674.0744 -25.11199,-65.6616 -55.99266,-130.7294 -89.64871,-130.7294 -33.658785,0 -64.536727,65.0678 -89.65144,130.7294 -59.892912,156.6013 -64.961612,478.0756 -66.740151,674.0799 -1.089458,130.7484 15.906076,249.4721 51.87723,250.3109 49.58937,322.1226 -5.256631,333.4992 -58.065347,716.9038 -116.792542,177.9029 -106.764082,228.2712 -106.764082,228.2712 -526.85064,189.7835 -1366.94478,-18.3573 -2314.84338,-442.355 -603.8698,143.25 -1174.9115,893.6491 -1496.1897,1572.80581 888.722,-32.70278 1498.178,273.87593 1765.2802,578.749649 C -1339.4827,-507.2078 -437.03076,-66.269043 58.8466,271.34286 M -149.15802,-1793.037 c -74.5897,885.73148 -16.83212,966.15249 114.215969,1585.79764 C 2.5407257,-69.262327 50.523147,7.3455834 58.8466,271.34286 c 21.544017,683.49552 53.05384,2068.89294 2.451279,2754.72534 -10.322608,136.0242 -299.295699,345.8155 -343.258019,500.9025 -22.63347,79.8599 -33.99379,408.1924 -33.37008,572.1448 379.534226,-90.3324 349.092067,-79.2226 435.48603,-79.2226 86.39123,0 55.94635,-11.1125 435.48329,79.2226 0.54473,-163.9524 -10.73115,-492.2849 -33.37007,-572.1448 C 478.30671,3371.8837 189.33089,3162.0924 179.01101,3026.0682 128.43841,2340.2358 159.94551,954.83838 181.46229,271.34286 189.79664,7.3455834 237.76816,-69.262327 275.25094,-207.23936 406.30992,-826.88451 464.0566,-907.30552 389.46691,-1793.037"
       inkscape:connector-curvature="0"
       sodipodi:nodetypes="cccccccccscccccccccccscccscccscc"
       inkscape:label="Mt dragon planform"
       inkscape:export-filename="/home/gert/devel/dragonworld/images/path4534-3-3.png"
       inkscape:export-xdpi="0.91967243"
       inkscape:export-ydpi="0.91967243" />
    <text
       xml:space="preserve"
       style="font-style:normal;font-weight:normal;font-size:384.33630371px;line-height:125%;font-family:Sans;letter-spacing:0px;word-spacing:0px;fill:#000000;fill-opacity:1;stroke:none;stroke-width:72.06305695px;stroke-linecap:butt;stroke-linejoin:miter;stroke-opacity:1"
       x="1447.8955"
       y="2795.5928"
       id="text4540"
       inkscape:label="Mt dragon caption"><tspan
         sodipodi:role="line"
         id="tspan4538"
         x="1447.8955"
         y="2795.5928"
         style="stroke-width:72.06305695px">Mountain dragon</tspan></text>
  </g>
  <g
     inkscape:groupmode="layer"
     id="layer6"
     inkscape:label="Tree dragon"
     style="display:inline">
    <path
       id="path4534-3-35"
       style="fill:#146e00;fill-opacity:1;fill-rule:nonzero;stroke:#000000;stroke-width:54.47286224;stroke-linecap:butt;stroke-linejoin:miter;stroke-miterlimit:4;stroke-dasharray:none;stroke-opacity:1"
       d="M 150.85126,366.27272 C 398.86893,272.69107 1341.6117,46.135709 1552.8302,227.07004 c 133.592,-84.51736 252.8794,-509.41114 608.1814,-609.82097 -160.6895,-188.27455 -602.7395,-343.32611 -904.7698,-383.03955 -474.10181,117.54155 -737.84579,53.01299 -1001.35554,0.54473 l -53.39702,-63.29202 c -26.41934,-106.28744 0.27236,-57.94278 25.11199,-147.24287 18.00328,-0.23151 26.52828,-33.14396 25.95632,-69.39026 -0.8171,-54.3367 -3.43179,-195.1054 -33.38097,-238.5176 -12.556,-18.1939 -60.7781,-58.6482 -98.97992,-58.6482 -38.299868,0 -86.421195,40.4461 -98.979913,58.6482 -29.9573511,43.4122 -32.493063,184.1809 -33.38097,238.5176 -0.544729,36.2463 7.9530374,69.15875 25.956318,69.39026 24.812389,89.30009 51.498645,40.95815 25.084754,147.24287 -58.416698,49.31973 -53.399747,63.28113 -53.399747,63.28113 -263.509752,52.61261 -531.755912,117.14117 -1005.857702,-0.27237 -302.0303,39.71344 -739.5754,194.765 -900.2649,383.03955 355.2993,100.41255 474.5867,525.3036 608.1814,609.82097 211.2185,-180.931608 1153.95853,45.62103 1401.976198,139.2054 M -14.522898,-765.12591 c -37.30574,245.53915 -8.416058,668.673454 57.12569,840.450902 18.738665,38.250848 42.747579,218.027628 46.909306,291.211918 10.785622,189.47841 26.528282,661.58929 1.361821,851.71589 -5.147685,37.7088 -149.694149,159.246 -171.68212,202.2387 -11.330355,22.1432 -16.995533,185.589 -16.695932,231.0412 189.82703,-25.0303 174.599142,-21.9526 217.809743,-21.9526 43.21059,0 27.98543,-3.0777 217.81246,21.9526 0.27236,-45.4522 -5.36558,-208.9035 -16.69593,-231.0412 -21.9798,-42.9927 -166.52082,-164.5299 -171.68212,-202.2387 -25.30265,-190.1266 -9.53275,-662.23748 1.08946,-851.71589 4.16717,-73.18429 28.15974,-252.96107 46.90658,-291.211918 65.55264,-171.777448 94.43415,-594.911752 57.12841,-840.450902"
       inkscape:connector-curvature="0"
       sodipodi:nodetypes="cccccccccssccccccccccscccscccscc"
       inkscape:label="Tree dragon planform"
       inkscape:export-filename="/home/gert/devel/dragonworld/images/tree-dragon.png"
       inkscape:export-xdpi="1.8200001"
       inkscape:export-ydpi="1.8200001" />
    <text
       xml:space="preserve"
       style="font-style:normal;font-weight:normal;font-size:384.33630371px;line-height:125%;font-family:Sans;letter-spacing:0px;word-spacing:0px;fill:#000000;fill-opacity:1;stroke:none;stroke-width:72.06305695px;stroke-linecap:butt;stroke-linejoin:miter;stroke-opacity:1"
       x="1962.3771"
       y="1058.8715"
       id="text4544"
       inkscape:label="Tree dragon caption"><tspan
         sodipodi:role="line"
         id="tspan4542"
         x="1962.3771"
         y="1058.8715"
         style="stroke-width:72.06305695px">Tree dragon</tspan></text>
  </g>
</svg>
